HIERARCHY
ROOT Hips
{
	OFFSET 0.000000 0.000000 0.000000
	CHANNELS 6 Xposition Yposition Zposition Zrotation Yrotation Xrotation 
	JOINT LowerBack
	{
		OFFSET 0.000000 0.000000 0.000000
		CHANNELS 3 Zrotation Yrotation Xrotation
		JOINT Spine
		{
			OFFSET 0.028270 2.035590 -0.193380
			CHANNELS 3 Zrotation Yrotation Xrotation
			JOINT Spine1
			{
				OFFSET 0.056720 2.048850 -0.042750
				CHANNELS 3 Zrotation Yrotation Xrotation
				JOINT Neck
				{
					OFFSET 0.000000 0.000000 0.000000
					CHANNELS 3 Zrotation Yrotation Xrotation
					JOINT Neck1
					{
						OFFSET -0.054170 1.746240 0.172020
						CHANNELS 3 Zrotation Yrotation Xrotation
						JOINT Head
						{
							OFFSET 0.104070 1.761360 -0.123970
							CHANNELS 3 Zrotation Yrotation Xrotation
							End Site
							{
								OFFSET 0.000000 0.000000 0.000000
							}
						}
					}
				}
				JOINT LeftShoulder
				{
					OFFSET 0.000000 0.000000 0.000000
					CHANNELS 3 Zrotation Yrotation Xrotation
					JOINT LeftArm
					{
						OFFSET 3.362410 1.200890 -0.311210
						CHANNELS 3 Zrotation Yrotation Xrotation
						JOINT LeftForeArm
						{
							OFFSET 4.983000 -0.000000 -0.000000
							CHANNELS 3 Zrotation Yrotation Xrotation
							JOINT LeftHand
							{
								OFFSET 3.483560 -0.000000 -0.000000
								CHANNELS 3 Zrotation Yrotation Xrotation
								JOINT LeftFingerBase
								{
									OFFSET 0.000000 0.000000 0.000000
									CHANNELS 3 Zrotation Yrotation Xrotation
									JOINT LeftHandIndex1
									{
										OFFSET 0.715260 -0.000000 -0.000000
										CHANNELS 3 Zrotation Yrotation Xrotation
										End Site
										{
											OFFSET 0.000000 0.000000 0.000000
										}
									}
								}
								JOINT LThumb
								{
									OFFSET 0.000000 0.000000 0.000000
									CHANNELS 3 Zrotation Yrotation Xrotation
									End Site
									{
										OFFSET 0.000000 0.000000 0.000000
									}
								}
							}
						}
					}
				}
				JOINT RightShoulder
				{
					OFFSET 0.000000 0.000000 0.000000
					CHANNELS 3 Zrotation Yrotation Xrotation
					JOINT RightArm
					{
						OFFSET -3.136600 1.374050 -0.404650
						CHANNELS 3 Zrotation Yrotation Xrotation
						JOINT RightForeArm
						{
							OFFSET -5.241900 -0.000000 -0.000000
							CHANNELS 3 Zrotation Yrotation Xrotation
							JOINT RightHand
							{
								OFFSET -3.444170 -0.000000 -0.000000
								CHANNELS 3 Zrotation Yrotation Xrotation
								JOINT RightFingerBase
								{
									OFFSET 0.000000 0.000000 0.000000
									CHANNELS 3 Zrotation Yrotation Xrotation
									JOINT RightHandIndex1
									{
										OFFSET -0.622530 -0.000000 -0.000000
										CHANNELS 3 Zrotation Yrotation Xrotation
										End Site
										{
											OFFSET 0.000000 0.000000 0.000000
										}
									}
								}
								JOINT RThumb
								{
									OFFSET 0.000000 0.000000 0.000000
									CHANNELS 3 Zrotation Yrotation Xrotation
									End Site
									{
										OFFSET 0.000000 0.000000 0.000000
									}
								}
							}
						}
					}
				}
			}
		}
	}
}
}
MOTION
Frames: 18
Frame Time: 0.008333
7.484508 16.595906 4.079783 16.846861 -87.980000 -4.188434 -3.972524 -1.243785 -6.218475 -1.399585 -1.125668 -4.058325 -6.004267 -1.135726 -0.074165 13.029531 -12.365232 -9.589644 -2.552305 -0.170739 -0.531198 0.000000 0.000000 0.000000 1.472966 13.738157 0.448584 -57.491388 -1.581254 -9.761055 -178.584803 -68.681751 179.972360 1.626933 15.527069 0.236068 -0.106063 0.083338 0.000000 0.000000 0.000000 0.000000 0.000000 0.000000 0.000000 9.963481 -3.979600 -0.409353 62.100206 9.794898 9.295748 179.751913 86.804973 -179.998592 -1.007138 6.829782 -0.064649 0.042556 -0.499575 0.000000 0.000000 0.000000 0.000000 0.000000 0.000000 0.000000 
7.353458 16.539513 4.071897 22.669519 -87.856300 -9.788422 -4.777824 -1.413828 -6.326608 -1.574444 -1.228290 -4.069951 -6.064811 -1.238113 -0.064697 13.396102 -12.348491 -9.574907 -2.579900 -0.172287 -0.536794 0.000000 0.000000 0.000000 1.687856 13.596863 0.435996 -57.964259 -2.082046 -10.608528 -178.634154 -69.018805 179.970788 1.898621 15.777439 0.277558 -0.108350 0.086621 0.000000 0.000000 0.000000 0.000000 0.000000 0.000000 0.000000 10.428241 -4.094430 -0.407029 62.666626 10.144891 9.229198 179.785032 87.199707 -179.997649 -0.862491 6.795322 -0.054937 0.039961 -0.499524 0.000000 0.000000 0.000000 0.000000 0.000000 0.000000 0.000000 
7.228300 16.490688 4.064967 28.199677 -87.811628 -15.114089 -5.503592 -1.547131 -6.407932 -1.735323 -1.298912 -4.079447 -6.118080 -1.307100 -0.067398 13.684381 -12.302271 -9.535162 -2.603164 -0.173801 -0.535420 0.000000 0.000000 0.000000 1.849769 13.444752 0.423346 -58.476244 -2.705054 -11.483677 -178.692763 -69.478830 179.968723 2.224011 16.091846 0.329245 -0.111528 0.089613 0.000000 0.000000 0.000000 0.000000 0.000000 0.000000 0.000000 10.790950 -4.179189 -0.412268 63.328912 10.498221 9.114113 179.822297 87.642032 -179.996465 -0.647304 6.698277 -0.040354 0.034916 -0.498556 0.000000 0.000000 0.000000 0.000000 0.000000 0.000000 0.000000 
7.109132 16.450112 4.060602 33.246573 -87.860464 -19.987052 -6.103698 -1.638054 -6.456961 -1.871230 -1.336609 -4.085764 -6.163319 -1.342230 -0.080447 13.887265 -12.224155 -9.474209 -2.622068 -0.175241 -0.527702 0.000000 0.000000 0.000000 1.939756 13.302811 0.410647 -59.020654 -3.470817 -12.365658 -178.757876 -70.056008 179.966091 2.611646 16.446249 0.392834 -0.115867 0.092862 0.000000 0.000000 0.000000 0.000000 0.000000 0.000000 0.000000 11.045256 -4.228288 -0.424020 64.047661 10.863354 8.958580 179.861095 88.113840 -179.995001 -0.357436 6.537183 -0.021101 0.027364 -0.496636 0.000000 0.000000 0.000000 0.000000 0.000000 0.000000 0.000000 
6.994817 16.417915 4.058599 38.529068 -87.989948 -25.113483 -6.585347 -1.693144 -6.493982 -1.984064 -1.348043 -4.095557 -6.202646 -1.350351 -0.113729 14.008674 -12.111792 -9.386474 -2.640315 -0.177068 -0.511602 0.000000 0.000000 0.000000 1.959576 13.113920 0.400275 -59.555407 -4.280560 -13.287452 -178.827278 -70.671921 179.962915 3.069172 16.827714 0.470023 -0.121222 0.095929 0.000000 0.000000 0.000000 0.000000 0.000000 0.000000 0.000000 11.206119 -4.235508 -0.434774 64.791872 11.233056 8.777217 179.898124 88.591113 -179.994069 0.010681 6.307989 0.002026 0.017573 -0.493818 0.000000 0.000000 0.000000 0.000000 0.000000 0.000000 0.000000 
6.885919 16.394154 4.061292 43.357039 -88.221705 -29.830655 -6.888378 -1.707433 -6.495748 -2.059272 -1.333724 -4.101587 -6.234062 -1.332249 -0.156032 14.045648 -11.967017 -9.285342 -2.655799 -0.178878 -0.490700 0.000000 0.000000 0.000000 1.894056 12.948986 0.390916 -60.091198 -5.224297 -14.181126 -178.897412 -71.354975 179.959184 3.588302 17.192004 0.559118 -0.127671 0.100168 0.000000 0.000000 0.000000 0.000000 0.000000 0.000000 0.000000 11.266495 -4.201920 -0.447654 65.508993 11.631329 8.580880 179.933323 89.057904 -179.991033 0.438061 6.028316 0.026928 0.005850 -0.490288 0.000000 0.000000 0.000000 0.000000 0.000000 0.000000 0.000000 
6.781015 16.378458 4.067998 48.429633 -88.531456 -34.820653 -7.034173 -1.693323 -6.482637 -2.101552 -1.304553 -4.109463 -6.259336 -1.298858 -0.214815 14.009019 -11.790414 -9.167480 -2.671745 -0.181038 -0.463850 0.000000 0.000000 0.000000 1.759475 12.754846 0.385070 -60.588794 -6.204981 -15.067841 -178.966161 -72.027678 179.955039 4.161628 17.523131 0.658819 -0.134801 0.105193 0.000000 0.000000 0.000000 0.000000 0.000000 0.000000 0.000000 11.246866 -4.127162 -0.456803 66.171739 12.053685 8.386709 179.962337 89.494166 -179.988613 0.912768 5.707517 0.052014 -0.007243 -0.486295 0.000000 0.000000 0.000000 0.000000 0.000000 0.000000 0.000000 
6.679618 16.370355 4.079025 53.835769 -88.908729 -40.174414 -7.019475 -1.659021 -6.452426 -2.109416 -1.269075 -4.117411 -6.278698 -1.258758 -0.286219 13.908656 -11.586599 -9.039278 -2.688220 -0.183449 -0.432900 0.000000 0.000000 0.000000 1.568227 12.543794 0.383322 -61.036177 -7.223549 -15.914735 -179.031145 -72.674788 179.950635 4.766018 17.794993 0.764222 -0.142208 0.111412 0.000000 0.000000 0.000000 0.000000 0.000000 0.000000 0.000000 11.159289 -4.017593 -0.462224 66.747710 12.510572 8.208681 179.984931 89.886893 -179.986018 1.408726 5.368051 0.075191 -0.021094 -0.482182 0.000000 0.000000 0.000000 0.000000 0.000000 0.000000 0.000000 
6.581016 16.369258 4.094226 59.815254 -89.338343 -46.124862 -6.849515 -1.615688 -6.413698 -2.083155 -1.238058 -4.126769 -6.291906 -1.222942 -0.370496 13.753275 -11.360459 -8.902166 -2.705907 -0.186159 -0.398193 0.000000 0.000000 0.000000 1.336602 12.297264 0.387140 -61.414397 -8.237778 -16.712071 -179.090249 -73.257396 179.946185 5.375300 17.994973 0.869734 -0.149418 0.118725 0.000000 0.000000 0.000000 0.000000 0.000000 0.000000 0.000000 11.014239 -3.880624 -0.462805 67.216412 13.006196 8.059727 0.000569 89.771499 0.016633 1.901254 5.032258 0.095165 -0.035085 -0.478305 0.000000 0.000000 0.000000 0.000000 0.000000 0.000000 0.000000 
6.484731 16.374690 4.112189 67.134883 -89.775211 -53.440860 -6.569667 -1.582838 -6.359353 -2.031367 -1.226543 -4.133646 -6.300676 -1.206172 -0.462051 13.563745 -11.118766 -8.762231 -2.725043 -0.189048 -0.362056 0.000000 0.000000 0.000000 1.102064 12.031707 0.397152 -61.713348 -9.262945 -17.418611 -179.142680 -73.780439 179.941934 5.951389 18.116693 0.967545 -0.155864 0.127286 0.000000 0.000000 0.000000 0.000000 0.000000 0.000000 0.000000 10.839014 -3.730548 -0.460824 67.567471 13.546564 7.947384 0.010276 89.486951 0.019184 2.360139 4.725125 0.111241 -0.048634 -0.475074 0.000000 0.000000 0.000000 0.000000 0.000000 0.000000 0.000000 
6.390077 16.386102 4.131514 -103.174671 -89.830371 116.855890 -6.234903 -1.583147 -6.293566 -1.963452 -1.251991 -4.137083 -6.305698 -1.226338 -0.558363 13.356097 -10.866507 -8.620849 -2.745988 -0.192103 -0.325273 0.000000 0.000000 0.000000 0.896419 11.739832 0.415434 -61.918361 -10.282922 -18.014362 -179.187718 -74.236947 179.938069 6.463117 18.169844 1.052158 -0.161182 0.136814 0.000000 0.000000 0.000000 0.000000 0.000000 0.000000 0.000000 10.654039 -3.581409 -0.458257 67.802096 14.128712 7.872814 0.015169 89.260973 0.021362 2.762304 4.466815 0.123623 -0.061320 -0.472821 0.000000 0.000000 0.000000 0.000000 0.000000 0.000000 0.000000 
6.296528 16.402959 4.152240 -89.859259 -89.498491 103.527351 -5.881071 -1.634835 -6.232421 -1.882580 -1.329207 -4.140169 -6.302771 -1.300057 -0.661777 13.129573 -10.612306 -8.473722 -2.768394 -0.195388 -0.286328 0.000000 0.000000 0.000000 0.727313 11.372337 0.445599 -62.015246 -11.228564 -18.519888 -179.224054 -74.591656 179.934796 6.885320 18.172242 1.119373 -0.165106 0.146652 0.000000 0.000000 0.000000 0.000000 0.000000 0.000000 0.000000 10.455662 -3.450736 -0.454566 67.925594 14.753237 7.839524 0.015942 89.081117 0.023152 3.091601 4.273693 0.132814 -0.072788 -0.471780 0.000000 0.000000 0.000000 0.000000 0.000000 0.000000 0.000000 
6.203978 16.425019 4.171647 -70.345165 -89.366953 83.998581 -5.723042 -1.764460 -6.171588 -1.825576 -1.465263 -4.138280 -6.291040 -1.438067 -0.764474 12.910980 -10.357704 -8.324537 -2.791862 -0.198721 -0.247241 0.000000 0.000000 0.000000 0.640279 10.963550 0.487520 -61.993763 -12.149578 -18.893639 -179.253255 -74.886910 179.932193 7.193723 18.147351 1.166482 -0.167505 0.156681 0.000000 0.000000 0.000000 0.000000 0.000000 0.000000 0.000000 10.280005 -3.349935 -0.454669 67.960380 15.413080 7.834238 0.015432 88.947016 0.024382 3.332608 4.154218 0.139516 -0.082958 -0.472287 0.000000 0.000000 0.000000 0.000000 0.000000 0.000000 0.000000 
6.112368 16.452035 4.188508 -44.814608 -89.645721 58.452073 -5.981706 -1.900296 -6.147169 -1.835559 -1.571865 -4.142128 -6.267858 -1.559658 -0.864481 12.713401 -10.108075 -8.172854 -2.815359 -0.201986 -0.207282 0.000000 0.000000 0.000000 0.649936 10.543277 0.527909 -61.837490 -13.011499 -19.160192 -179.279677 -75.115432 179.930508 7.379719 18.121140 1.193674 -0.167862 0.166086 0.000000 0.000000 0.000000 0.000000 0.000000 0.000000 0.000000 10.139006 -3.243523 -0.450320 67.932404 16.122783 7.861018 0.015349 88.838175 0.025120 3.481354 4.108929 0.144555 -0.091190 -0.475004 0.000000 0.000000 0.000000 0.000000 0.000000 0.000000 0.000000 
6.021532 16.483729 4.202124 159.711524 -89.541385 -146.117752 -6.350978 -1.846557 -6.205762 -1.885994 -1.488977 -4.172596 -6.254702 -1.499649 -0.956321 12.540025 -9.869033 -8.028103 -2.839487 -0.205177 -0.166814 0.000000 0.000000 0.000000 0.746907 10.219668 0.536465 -61.552705 -13.804453 -19.341219 -179.309043 -75.281649 179.930169 7.444399 18.114351 1.202444 -0.165033 0.174233 0.000000 0.000000 0.000000 0.000000 0.000000 0.000000 0.000000 10.026338 -3.037904 -0.427945 67.855115 16.904440 7.929580 0.014457 88.742173 0.025555 3.542143 4.130830 0.148056 -0.096175 -0.480321 0.000000 0.000000 0.000000 0.000000 0.000000 0.000000 0.000000 
5.931610 16.519887 4.211689 178.002848 -88.642592 -164.489479 -6.258021 -1.665420 -6.293922 -1.886442 -1.327019 -4.217268 -6.271549 -1.347579 -1.042659 12.380564 -9.648240 -7.891241 -2.867731 -0.208701 -0.126536 0.000000 0.000000 0.000000 0.927354 9.950009 0.525815 -61.160178 -14.548452 -19.435606 -179.338131 -75.412237 179.931080 7.398281 18.143065 1.195712 -0.159323 0.181287 0.000000 0.000000 0.000000 0.000000 0.000000 0.000000 0.000000 9.938031 -2.781461 -0.398569 67.732703 17.726443 8.014479 0.012088 88.669551 0.025560 3.524109 4.208312 0.150082 -0.098487 -0.486948 0.000000 0.000000 0.000000 0.000000 0.000000 0.000000 0.000000 
5.842772 16.560327 4.216568 -170.170536 -88.074180 -176.399139 -5.901192 -1.559862 -6.360327 -1.845099 -1.259923 -4.253139 -6.304318 -1.277005 -1.126473 12.233726 -9.447183 -7.752470 -2.898598 -0.212531 -0.086135 0.000000 0.000000 0.000000 1.198933 9.629945 0.526120 -60.661002 -15.272641 -19.433286 -179.362815 -75.533409 179.932725 7.259536 18.214480 1.176883 -0.152247 0.187499 0.000000 0.000000 0.000000 0.000000 0.000000 0.000000 0.000000 9.879544 -2.580979 -0.380661 67.586172 18.540707 8.076717 0.009921 88.625800 0.024983 3.440522 4.325113 0.150595 -0.099866 -0.493852 0.000000 0.000000 0.000000 0.000000 0.000000 0.000000 0.000000 
5.755104 16.604721 4.217109 -161.981953 -87.755325 175.335844 -5.539310 -1.534024 -6.419647 -1.798886 -1.269089 -4.281681 -6.343811 -1.278598 -1.205807 12.098142 -9.263922 -7.610228 -2.929385 -0.216434 -0.045248 0.000000 0.000000 0.000000 1.543942 9.266030 0.536236 -60.051947 -15.994124 -19.346799 -179.384464 -75.654590 179.934866 7.050945 18.322769 1.149053 -0.144457 0.192918 0.000000 0.000000 0.000000 0.000000 0.000000 0.000000 0.000000 9.842839 -2.435712 -0.374484 67.435438 19.334045 8.100397 0.008547 88.608075 0.023954 3.309444 4.462894 0.149399 -0.100855 -0.500972 0.000000 0.000000 0.000000 0.000000 0.000000 0.000000 0.000000 
